<svg xmlns="http://www.w3.org/2000/svg" viewBox="0 0 480 300" role="img" aria-label="Project SHADE preview">
  <defs>
    <linearGradient id="bg" x1="0" y1="0" x2="1" y2="1">
      <stop offset="0" stop-color="#dbeafe" />
      <stop offset="1" stop-color="#fee2e2" />
    </linearGradient>
  </defs>
  <rect width="480" height="300" fill="url(#bg)" />
  <rect x="26" y="28" width="428" height="244" rx="16" fill="#09090b" opacity="0.93" />
  <path d="M56 192 C88 148 122 160 146 132 C178 98 212 108 244 86 C270 70 312 72 346 48" stroke="#f43f5e" stroke-width="7" fill="none" stroke-linecap="round"/>
  <path d="M56 206 C90 186 122 194 154 168 C188 142 218 154 252 124 C290 92 322 108 356 86" stroke="#38bdf8" stroke-width="5" fill="none" stroke-linecap="round"/>
  <rect x="56" y="58" width="130" height="14" rx="7" fill="#f1f5f9" opacity="0.86" />
  <rect x="56" y="82" width="188" height="10" rx="5" fill="#cbd5e1" opacity="0.82" />
</svg>
